<svg xmlns="http://www.w3.org/2000/svg" width="215" height="66" viewBox="0 0 215 66" fill="none" class="am-icon am-adsmoss-logo-icon w-[168px] h-[52px] mb-[30px]"><path fill-rule="evenodd" clip-rule="evenodd" d="M129.323 32.231C128.586 31.8735 127.729 31.4579 126.444 31.4579H126.441C124.592 31.4579 124.491 32.0917 124.491 32.735L124.493 32.735C124.496 32.824 124.506 32.8576 124.514 32.8852C124.515 32.8872 124.516 32.8891 124.516 32.891C124.652 33.232 125.455 33.5643 125.802 33.6856C126.037 33.7683 126.394 33.8529 126.83 33.9563C129.232 34.5254 134.036 35.6636 134.034 40.1723C134.032 43.4187 131.496 46.084 127.16 46.084C124.661 46.084 122.644 45.3357 120.616 44.0528C119.841 43.6772 119.307 42.8855 119.307 41.9666C119.307 40.6866 120.344 39.6493 121.624 39.6493C122.089 39.6493 122.52 39.788 122.884 40.025L122.895 40.0076C124.19 40.8542 125.441 41.4465 127.16 41.4465C128.186 41.4465 129.396 41.1952 129.396 40.1694C129.396 40.0567 129.382 40.0047 129.37 39.9672C129.105 39.2477 126.764 38.7016 126.024 38.5456C122.696 37.7886 119.864 36.1474 119.856 32.7495L124.233 32.7358L119.853 32.7003C119.853 27.6295 124.996 25.7282 129.804 27.407C130.584 27.6815 131.315 28.0195 131.986 28.3663C132.731 28.7505 133.24 29.5278 133.24 30.4235C133.24 31.7035 132.202 32.7408 130.922 32.7408C130.859 32.7408 130.795 32.735 130.732 32.7292C130.437 32.7061 130.16 32.6252 129.905 32.501C129.716 32.4217 129.524 32.3285 129.323 32.231Z" fill="white"></path><path fill-rule="evenodd" clip-rule="evenodd" d="M193.092 32.3789C192.344 32.0133 191.475 31.5882 190.17 31.5882C188.356 31.5882 188.199 32.1924 188.19 32.8261C188.194 32.8466 188.198 32.8607 188.202 32.8736C188.202 32.8756 188.203 32.8775 188.204 32.8795C188.339 33.2204 189.146 33.5527 189.492 33.674C189.727 33.7567 190.084 33.8413 190.521 33.9447C192.924 34.5139 197.732 35.6528 197.73 40.1665C197.727 43.4116 195.188 46.0782 190.85 46.0782C188.348 46.0782 186.328 45.3299 184.3 44.047C183.523 43.6714 182.988 42.8797 182.988 41.9608C182.988 40.6808 184.028 39.6407 185.308 39.6407C185.774 39.6407 186.207 39.7793 186.571 40.0163L186.583 39.9989C187.877 40.8484 189.128 41.4407 190.85 41.4407C191.879 41.4407 193.09 41.1894 193.09 40.1636C193.09 40.0509 193.075 39.9989 193.064 39.9614C192.798 39.2419 190.454 38.6958 189.715 38.5398C186.423 37.7918 183.617 36.1778 183.542 32.8588L183.485 32.8584C183.485 27.6684 188.702 25.7248 193.582 27.441C194.373 27.7216 195.114 28.0643 195.794 28.4217C196.55 28.8175 197.065 29.6121 197.065 30.5278C197.065 31.8363 196.014 32.8997 194.713 32.8997C194.648 32.8997 194.584 32.8938 194.52 32.8879C194.221 32.8643 193.94 32.7816 193.682 32.6545C193.49 32.5736 193.295 32.4785 193.092 32.3789Z" fill="white"></path><path fill-rule="evenodd" clip-rule="evenodd" d="M209.357 32.643C208.626 32.26 207.775 31.8147 206.497 31.8147C204.89 31.8147 204.612 32.3337 204.567 32.9248C204.752 33.2495 205.503 33.5581 205.834 33.674C206.069 33.7567 206.426 33.8413 206.863 33.9447C209.266 34.5139 214.074 35.6528 214.072 40.1665C214.069 43.4116 211.529 46.0782 207.192 46.0782C204.69 46.0782 202.67 45.3299 200.642 44.047C199.865 43.6713 199.33 42.8796 199.33 41.9608C199.33 40.6808 200.37 39.6406 201.65 39.6406C202.115 39.6406 202.549 39.7793 202.913 40.0163L202.924 39.9989C204.219 40.8484 205.47 41.4407 207.192 41.4407C208.221 41.4407 209.431 41.1894 209.431 40.1636C209.431 40.0509 209.417 39.9989 209.405 39.9614C209.14 39.2419 206.796 38.6958 206.057 38.5398C202.725 37.7828 199.891 36.1387 199.882 32.7379L199.965 32.7376C200.214 27.6073 205.182 25.7177 209.837 27.47C210.611 27.764 211.337 28.1229 212.002 28.4974C212.742 28.912 213.246 29.7445 213.246 30.7037C213.246 32.0746 212.217 33.1886 210.944 33.1886C210.881 33.1886 210.818 33.1825 210.755 33.1763C210.462 33.1515 210.187 33.0649 209.935 32.9318C209.747 32.847 209.557 32.7473 209.357 32.643Z" fill="white"></path><path fill-rule="evenodd" clip-rule="evenodd" d="M80.7805 20.3076C79.5829 20.2818 78.415 20.916 77.8143 22.0458L67.4643 41.5114C66.6147 43.1092 67.2213 45.0931 68.819 45.9427C70.4168 46.7922 72.4008 46.1857 73.2503 44.5879L80.7741 30.4377L83.5365 35.6331H80.9148C79.7866 35.6331 78.872 36.5477 78.872 37.6759C78.872 38.8041 79.7866 39.7187 80.9148 39.7187H85.7089L88.298 44.5881C89.1476 46.1859 91.1315 46.7925 92.7293 45.9429C94.3271 45.0934 94.9337 43.1094 94.0841 41.5116L83.7341 22.0461C83.1355 20.9202 81.9736 20.2865 80.7805 20.3076Z" fill="white"></path><path fill-rule="evenodd" clip-rule="evenodd" d="M156.61 20.2759H156.613C158.389 20.2759 159.829 21.7157 159.829 23.4918V43.1137C159.829 44.8898 158.389 46.3296 156.613 46.3296H156.61C154.834 46.3296 153.394 44.8898 153.394 43.1137V31.4066L151.427 33.9071C151.143 34.355 150.676 34.7457 150.049 35.0119C149.47 35.2564 148.833 35.362 148.212 35.3426C147.678 35.3283 147.142 35.221 146.648 35.0119C146.016 34.7448 145.546 34.3508 145.263 33.8988L143.235 31.3222V43.1628C143.235 44.9389 141.796 46.3787 140.02 46.3787H140.017C138.241 46.3787 136.801 44.9389 136.801 43.1628V23.5409C136.801 21.7649 138.241 20.3251 140.017 20.3251H140.02C140.481 20.3251 140.919 20.4221 141.316 20.5969C142.225 20.7366 143.053 21.1489 143.553 21.7871L148.348 27.8806L153.143 21.7871C153.593 21.2163 154.305 20.8258 155.103 20.6501C155.553 20.4113 156.066 20.2759 156.61 20.2759Z" fill="url(#paint0_linear_964_332)"></path><path fill-rule="evenodd" clip-rule="evenodd" d="M113.628 17.8459C115.425 17.8459 116.882 19.3026 116.882 21.0994V43.027C116.882 44.8239 115.425 46.2805 113.628 46.2805C112.57 46.2805 111.629 45.775 111.035 44.9923C109.532 45.8873 107.778 46.4018 105.906 46.4018C100.358 46.4018 95.8477 41.8886 95.8477 36.3439C95.8477 30.7991 100.361 26.2859 105.906 26.2859C107.51 26.2859 109.028 26.6636 110.375 27.3349V21.0994C110.375 19.3026 111.832 17.8459 113.628 17.8459ZM110.375 34.5545C109.664 32.7832 107.929 31.5301 105.906 31.5301C103.253 31.5301 101.092 33.6885 101.092 36.3439C101.092 38.9992 103.25 41.1576 105.906 41.1576C107.929 41.1576 109.664 39.9045 110.375 38.1332V34.5545Z" fill="white"></path><path d="M171.826 46.4018C166.278 46.4018 161.768 41.8886 161.768 36.3439C161.768 30.7991 166.281 26.2859 171.826 26.2859C177.37 26.2859 181.884 30.7991 181.884 36.3439C181.884 41.8886 177.37 46.4018 171.826 46.4018ZM171.826 31.5301C169.173 31.5301 167.012 33.6885 167.012 36.3439C167.012 38.9992 169.17 41.1576 171.826 41.1576C174.481 41.1576 176.639 38.9992 176.639 36.3439C176.639 33.6885 174.481 31.5301 171.826 31.5301Z" fill="white"></path><path d="M5.61398 43.8209C5.61398 43.8209 5.60866 43.8345 5.60819 43.8437L5.61398 43.8209Z" fill="url(#paint1_linear_964_332)"></path><path d="M39.5104 13.5739C39.5104 13.5739 39.506 13.572 39.4997 13.5746C33.6295 14.4141 26.4332 17.6702 20.3745 22.9601L20.3701 22.9582C16.7674 25.7949 12.9574 31.5536 12.0904 36.2162C11.6294 38.6557 11.9811 40.7991 13.5903 42.0642C13.5051 42.0073 13.418 41.9548 13.3384 41.8846C11.2937 40.013 10.5902 37.1269 11.198 33.776C11.3032 33.3311 11.4059 32.8799 11.5086 32.4288C11.7776 31.241 12.0442 30.047 12.3107 28.8529C14.6284 18.494 17.0822 8.18242 23.2771 5.12684C24.675 4.43312 26.2683 4.11381 28.0964 4.24808C32.0353 4.53751 35.3906 6.68327 37.8344 10.4267C38.4546 11.3716 39.0147 12.4213 39.5104 13.5739Z" fill="url(#paint2_linear_964_332)"></path><path d="M11.2098 64.0902C4.03661 64.7987 0.648118 57.9047 0.811614 48.3383C1.04815 35.049 8.15776 16.5902 21.5393 6.18666L21.5599 6.20798C14.4427 13.1726 19.2698 30.4599 20.5655 44.3599C21.5357 54.7089 20.5471 63.1745 11.2098 64.0902Z" fill="url(#paint3_linear_964_332)"></path><path fill-rule="evenodd" clip-rule="evenodd" d="M34.2238 44.447C33.9199 45.9441 33.6811 47.3375 33.5324 48.6C31.1268 68.9753 65.7788 74.3898 50.039 33.2437C47.3066 26.1067 41.3089 16.8551 41.3089 16.8551C41.3089 16.8551 40.0626 20.183 39.4648 22.8813C39.4365 23.0145 39.4068 23.1428 39.3736 23.2774C38.8033 25.8347 38.1685 28.3997 37.5312 30.9059L41.0164 33.467C43.1851 35.0918 43.1038 37.877 40.9893 39.4686L34.2238 44.447Z" fill="url(#paint4_linear_964_332)"></path><path d="M27.1968 27.2152L38.6282 34.3223C40.5099 35.5149 40.4394 37.5594 38.6047 38.7277L27.0321 45.9322C26.0912 46.492 25.0328 46.8084 24.0214 46.1512C23.1981 45.6157 22.9629 44.7639 22.9629 43.839V29.2597C22.9629 28.3349 23.2687 27.483 24.0684 26.9475C25.1033 26.2903 26.2324 26.6067 27.1968 27.2152Z" fill="url(#paint5_linear_964_332)"></path><defs><linearGradient id="paint0_linear_964_332" x1="136.801" y1="23.2979" x2="159.752" y2="23.2979" gradientUnits="userSpaceOnUse"><stop stop-color="#D8FF80"></stop><stop offset="1" stop-color="#1BD471"></stop></linearGradient><linearGradient id="paint1_linear_964_332" x1="5.6089" y1="43.8299" x2="5.6135" y2="43.8301" gradientUnits="userSpaceOnUse"><stop stop-color="#00FFFF"></stop><stop offset="1" stop-color="#1292FF"></stop></linearGradient><linearGradient id="paint2_linear_964_332" x1="19.4976" y1="13.8213" x2="38.2787" y2="12.9545" gradientUnits="userSpaceOnUse"><stop stop-color="#D8FF80"></stop><stop offset="1" stop-color="#1BD471"></stop></linearGradient><linearGradient id="paint3_linear_964_332" x1="1.50637" y1="34.4282" x2="21.6631" y2="35.4681" gradientUnits="userSpaceOnUse"><stop stop-color="#D8FF80"></stop><stop offset="1" stop-color="#1BD471"></stop></linearGradient><linearGradient id="paint4_linear_964_332" x1="45.4513" y1="34.1599" x2="68.4992" y2="63.3796" gradientUnits="userSpaceOnUse"><stop stop-color="#D8FF80"></stop><stop offset="1" stop-color="#1BD471"></stop></linearGradient><linearGradient id="paint5_linear_964_332" x1="26.3033" y1="34.2961" x2="33.4408" y2="40.9075" gradientUnits="userSpaceOnUse"><stop stop-color="#D8FF80"></stop><stop offset="1" stop-color="#1BD471"></stop></linearGradient></defs></svg>
