<svg class="w-[125px]" xmlns="http://www.w3.org/2000/svg" viewBox="0 0 1369 384" fill="none"><path d="M5.03955 176.427C5.03849 198.935 9.47103 221.222 18.0841 242.016C26.6971 262.811 39.322 281.706 55.2378 297.621C71.1536 313.537 90.0487 326.162 110.844 334.775C131.639 343.389 153.928 347.822 176.437 347.822C198.946 347.822 221.234 343.389 242.03 334.775C262.825 326.162 281.72 313.537 297.636 297.621C313.552 281.706 326.177 262.811 334.79 242.016C343.403 221.222 347.835 198.935 347.834 176.427C347.835 153.919 343.403 131.632 334.79 110.837C326.177 90.0429 313.552 71.1483 297.636 55.2327C281.72 39.3171 262.825 26.6921 242.03 18.0786C221.234 9.46507 198.946 5.03174 176.437 5.03174C153.928 5.03174 131.639 9.46507 110.844 18.0786C90.0487 26.6921 71.1536 39.3171 55.2378 55.2327C39.322 71.1483 26.6971 90.0429 18.0841 110.837C9.47103 131.632 5.03849 153.919 5.03955 176.427Z" fill="#FE2062"></path><path d="M176.438 352.856C129.628 352.856 84.9785 334.853 51.8513 301.008C18.0039 267.882 0 223.235 0 176.428C0 129.621 18.0039 84.9734 51.8513 51.1281C84.9785 18.0029 129.628 0 176.438 0C223.249 0 267.898 18.0029 301.025 51.1281C334.873 84.9734 352.877 128.9 352.877 176.428C352.877 223.955 334.873 267.882 301.025 301.008C267.898 334.133 223.969 352.856 176.438 352.856ZM176.438 9.36148C84.9785 9.36148 10.0822 84.2533 10.0822 176.428C10.0822 268.603 84.9785 342.774 176.438 342.774C267.898 342.774 343.515 267.882 343.515 176.428C343.515 84.9734 268.618 9.36148 176.438 9.36148Z" fill="white"></path><path d="M59.0513 221.796C59.0513 222.751 59.4306 223.667 60.1059 224.342C60.7812 225.018 61.6971 225.397 62.652 225.397C63.607 225.397 64.5229 225.018 65.1982 224.342C65.8735 223.667 66.2528 222.751 66.2528 221.796C66.2528 220.841 65.8735 219.926 65.1982 219.25C64.5229 218.575 63.607 218.196 62.652 218.196C61.6971 218.196 60.7812 218.575 60.1059 219.25C59.4306 219.926 59.0513 220.841 59.0513 221.796Z" fill="white"></path><path d="M79.9414 227.556C79.9414 228.701 80.3966 229.8 81.207 230.611C82.0173 231.421 83.1164 231.876 84.2623 231.876C85.4083 231.876 86.5074 231.421 87.3177 230.611C88.128 229.8 88.5833 228.701 88.5833 227.556C88.5833 226.41 88.128 225.311 87.3177 224.5C86.5074 223.69 85.4083 223.235 84.2623 223.235C83.1164 223.235 82.0173 223.69 81.207 224.5C80.3966 225.311 79.9414 226.41 79.9414 227.556Z" fill="white"></path><path d="M33.1221 197.311C33.122 197.595 33.1777 197.876 33.2863 198.138C33.3948 198.401 33.5539 198.639 33.7545 198.84C33.9552 199.04 34.1934 199.2 34.4556 199.308C34.7177 199.417 34.9987 199.473 35.2825 199.473C35.5663 199.473 35.8473 199.417 36.1095 199.308C36.3717 199.2 36.6099 199.04 36.8105 198.84C37.0112 198.639 37.1703 198.401 37.2788 198.138C37.3873 197.876 37.4431 197.595 37.443 197.311C37.4431 197.028 37.3873 196.747 37.2788 196.484C37.1703 196.222 37.0112 195.984 36.8105 195.783C36.6099 195.583 36.3717 195.423 36.1095 195.315C35.8473 195.206 35.5663 195.15 35.2825 195.15C34.9987 195.15 34.7177 195.206 34.4556 195.315C34.1934 195.423 33.9552 195.583 33.7545 195.783C33.5539 195.984 33.3948 196.222 33.2863 196.484C33.1777 196.747 33.122 197.028 33.1221 197.311Z" fill="white"></path><path d="M38.894 95.0568C38.8939 95.4352 38.9683 95.8098 39.113 96.1594C39.2577 96.509 39.4699 96.8267 39.7374 97.0943C40.0049 97.3619 40.3225 97.5741 40.6721 97.7189C41.0216 97.8638 41.3963 97.9383 41.7747 97.9383C42.153 97.9383 42.5277 97.8638 42.8773 97.7189C43.2268 97.5741 43.5444 97.3619 43.8119 97.0943C44.0795 96.8267 44.2916 96.509 44.4363 96.1594C44.581 95.8098 44.6554 95.4352 44.6553 95.0568C44.6554 94.6784 44.581 94.3038 44.4363 93.9542C44.2916 93.6046 44.0795 93.2869 43.8119 93.0193C43.5444 92.7517 43.2268 92.5395 42.8773 92.3947C42.5277 92.2498 42.153 92.1753 41.7747 92.1753C41.3963 92.1753 41.0216 92.2498 40.6721 92.3947C40.3225 92.5395 40.0049 92.7517 39.7374 93.0193C39.4699 93.2869 39.2577 93.6046 39.113 93.9542C38.9683 94.3038 38.8939 94.6784 38.894 95.0568Z" fill="white"></path><path d="M102.267 277.244C102.267 278.199 102.646 279.115 103.321 279.79C103.997 280.466 104.912 280.845 105.867 280.845C106.822 280.845 107.738 280.466 108.414 279.79C109.089 279.115 109.468 278.199 109.468 277.244C109.468 276.289 109.089 275.374 108.414 274.698C107.738 274.023 106.822 273.644 105.867 273.644C104.912 273.644 103.997 274.023 103.321 274.698C102.646 275.374 102.267 276.289 102.267 277.244Z" fill="white"></path><path d="M216.766 301.729C216.766 302.684 217.145 303.6 217.82 304.275C218.496 304.95 219.411 305.33 220.366 305.33C221.321 305.33 222.237 304.95 222.913 304.275C223.588 303.6 223.967 302.684 223.967 301.729C223.967 300.774 223.588 299.858 222.913 299.183C222.237 298.508 221.321 298.129 220.366 298.129C219.411 298.129 218.496 298.508 217.82 299.183C217.145 299.858 216.766 300.774 216.766 301.729Z" fill="white"></path><path d="M300.311 247.718C300.311 248.482 300.614 249.215 301.154 249.755C301.694 250.295 302.427 250.599 303.191 250.599C303.955 250.599 304.688 250.295 305.228 249.755C305.768 249.215 306.072 248.482 306.072 247.718C306.072 246.954 305.768 246.221 305.228 245.681C304.688 245.141 303.955 244.838 303.191 244.838C302.427 244.838 301.694 245.141 301.154 245.681C300.614 246.221 300.311 246.954 300.311 247.718Z" fill="white"></path><path d="M305.35 156.984C305.35 157.268 305.406 157.549 305.514 157.811C305.623 158.073 305.782 158.312 305.983 158.512C306.183 158.713 306.421 158.872 306.684 158.981C306.946 159.09 307.227 159.145 307.511 159.145C307.794 159.145 308.075 159.09 308.338 158.981C308.6 158.872 308.838 158.713 309.039 158.512C309.239 158.312 309.398 158.073 309.507 157.811C309.615 157.549 309.671 157.268 309.671 156.984C309.671 156.7 309.615 156.419 309.507 156.157C309.398 155.895 309.239 155.657 309.039 155.456C308.838 155.255 308.6 155.096 308.338 154.988C308.075 154.879 307.794 154.823 307.511 154.823C307.227 154.823 306.946 154.879 306.684 154.988C306.421 155.096 306.183 155.255 305.983 155.456C305.782 155.657 305.623 155.895 305.514 156.157C305.406 156.419 305.35 156.7 305.35 156.984Z" fill="white"></path><path d="M260.694 170.669C262.854 170.669 264.295 172.109 264.295 174.269C264.295 176.43 262.854 177.87 260.694 177.87C258.533 177.87 257.093 176.43 257.093 174.269C257.093 172.109 258.533 170.669 260.694 170.669ZM231.888 123.141C234.048 123.141 235.488 124.581 235.488 126.742C235.488 128.902 234.048 130.342 231.888 130.342C229.727 130.342 228.287 128.902 228.287 126.742C228.287 125.302 230.447 123.141 231.888 123.141ZM214.604 114.5C216.764 114.5 218.205 115.94 218.205 118.1C218.205 120.261 216.764 121.701 214.604 121.701C212.443 121.701 211.003 120.261 211.003 118.1C211.003 115.94 212.443 114.5 214.604 114.5ZM203.081 90.0159C204.522 90.0159 205.242 90.736 205.242 92.1763C205.242 93.6165 204.522 94.3366 203.081 94.3366C201.641 94.3366 200.921 93.6165 200.921 92.1763C200.921 90.736 202.361 90.0159 203.081 90.0159ZM191.559 82.0947C192.279 82.0947 192.999 82.8148 192.999 83.5349C192.999 84.255 192.279 84.9751 191.559 84.9751C190.839 84.9751 190.119 84.255 190.119 83.5349C189.398 82.8148 190.119 82.0947 191.559 82.0947ZM209.563 77.0539C211.003 77.0539 211.723 78.4941 211.723 79.2142C211.723 80.6544 210.283 81.3746 209.563 81.3746C208.122 81.3746 207.402 79.9343 207.402 79.2142C207.402 78.4941 208.122 77.0539 209.563 77.0539ZM266.455 46.8091C267.175 46.8091 267.895 47.5292 267.895 48.2493C267.895 48.9694 267.175 49.6895 266.455 49.6895C265.735 49.6895 265.015 48.9694 265.015 48.2493C265.015 47.5292 265.735 46.8091 266.455 46.8091ZM272.216 94.3366C273.657 94.3366 274.377 95.7768 274.377 96.497C274.377 97.2171 272.937 98.6573 272.216 98.6573C271.496 98.6573 270.056 97.2171 270.056 96.497C270.056 95.7768 270.776 94.3366 272.216 94.3366ZM254.212 118.82C255.653 118.82 256.373 120.261 256.373 120.981C256.373 121.701 254.933 123.141 254.212 123.141C253.492 123.141 252.052 121.701 252.052 120.981C252.052 120.261 252.772 118.82 254.212 118.82ZM129.625 115.22C130.346 115.22 131.066 115.94 131.066 116.66C131.066 117.38 130.346 118.1 129.625 118.1C128.905 118.1 128.185 117.38 128.185 116.66C128.185 115.94 128.905 115.22 129.625 115.22ZM140.428 105.138C142.588 105.138 144.029 106.579 144.029 108.739C144.029 110.899 142.588 112.339 140.428 112.339C138.267 112.339 136.827 110.899 136.827 108.739C136.827 106.579 138.267 105.138 140.428 105.138ZM141.148 192.272C142.588 192.272 143.308 193.712 143.308 194.432C143.308 195.153 141.868 196.593 141.148 196.593C139.708 196.593 138.987 195.153 138.987 194.432C138.987 193.712 139.708 192.272 141.148 192.272ZM207.402 154.826C208.843 154.826 209.563 156.266 209.563 156.987C209.563 157.707 208.122 159.147 207.402 159.147C205.962 159.147 205.242 157.707 205.242 156.987C205.242 156.266 205.962 154.826 207.402 154.826ZM225.406 159.867C226.847 159.867 227.567 161.307 227.567 162.027C227.567 162.747 226.126 164.188 225.406 164.188C223.966 164.188 223.246 162.747 223.246 162.027C223.246 161.307 223.966 159.867 225.406 159.867ZM93.6176 155.546C95.0579 155.546 95.778 156.266 95.778 157.707C95.778 159.147 95.0579 159.867 93.6176 159.867C92.1773 159.867 91.4571 159.147 91.4571 157.707C91.4571 156.266 92.1773 155.546 93.6176 155.546ZM89.2966 172.109C90.737 172.109 92.1773 173.549 92.1773 174.989C92.1773 176.43 90.737 177.87 89.2966 177.87C87.8563 177.87 86.416 176.43 86.416 174.989C86.416 173.549 87.8563 172.109 89.2966 172.109ZM216.044 262.843C217.484 262.843 218.205 264.284 218.205 265.004C218.205 266.444 216.764 267.164 216.044 267.164C214.604 267.164 213.884 265.724 213.884 265.004C213.884 264.284 214.604 262.843 216.044 262.843ZM245.571 255.642C247.731 255.642 249.171 257.082 249.171 259.243C249.171 261.403 247.731 262.843 245.571 262.843C243.41 262.843 241.97 261.403 241.97 259.243C241.97 257.082 243.41 255.642 245.571 255.642Z" fill="white"></path><path d="M71.2935 90.7355C71.2935 90.7355 79.9354 37.447 128.186 64.0912C128.186 64.0912 231.168 122.42 281.579 228.277C281.579 228.277 315.427 283.006 247.732 291.647C247.732 291.647 174.996 301.009 114.503 244.84C114.503 244.12 44.6477 180.03 71.2935 90.7355Z" fill="white"></path><path d="M94.3351 66.9697C107.298 56.168 158.429 91.4535 208.84 145.462C259.251 199.471 289.498 253.479 277.255 264.281C264.292 275.083 213.161 239.797 162.75 185.788C112.339 131.78 81.3723 77.7714 94.3351 66.9697Z" fill="#FE2062"></path><path d="M38.894 355.015L120.272 281.563C120.272 281.563 124.593 274.362 132.514 282.283L213.892 355.735L38.894 355.015Z" fill="white"></path><path d="M226.853 360.056H25.9292L116.669 277.963C117.389 276.523 120.27 273.643 124.591 273.643C128.191 272.922 132.512 275.083 136.113 278.683L226.853 360.056ZM126.031 283.004C125.311 283.004 124.591 283.724 124.591 283.724V284.444L51.8548 349.975H201.647L129.632 285.164C128.191 283.724 126.751 283.004 126.031 283.004Z" fill="white"></path><path d="M258.533 109.456C255.653 109.456 252.772 107.296 252.052 103.695C249.892 82.8118 233.328 81.3716 231.888 81.3716C228.287 81.3716 226.126 78.4911 226.126 74.8906C226.126 71.29 229.007 69.1296 232.608 69.1296C242.69 69.8498 262.134 77.0509 264.295 102.975C265.015 105.855 262.854 108.736 258.533 109.456C259.254 109.456 259.254 109.456 258.533 109.456Z" fill="white"></path><path d="M292.387 118.099C288.786 118.099 286.626 115.218 285.905 112.338C282.305 47.5277 224.692 48.2478 221.811 48.2478C218.211 48.2478 215.33 45.3673 215.33 42.4869C215.33 38.8863 218.211 36.0059 221.091 36.0059C221.811 36.0059 239.815 36.0059 257.819 44.6472C275.103 53.2886 295.988 72.0116 297.428 111.618C298.868 115.218 295.988 118.099 292.387 118.099Z" fill="white"></path><path d="M537.237 52.5667C536.517 53.2868 535.797 54.0069 535.077 54.0069H471.703C470.983 54.0069 470.262 54.727 470.262 55.4471V112.336C470.262 113.056 470.983 113.776 471.703 113.776H509.151C509.871 113.776 511.311 113.776 512.032 114.496C512.752 115.217 512.752 115.937 512.752 117.377V140.421C512.752 141.141 512.752 142.581 512.032 143.301C511.311 144.021 510.591 144.021 509.151 144.021H471.703C470.983 144.021 470.262 144.741 470.262 145.461V231.155C470.262 231.875 469.542 233.315 469.542 234.035C468.822 234.756 468.102 234.756 467.382 234.756H440.736C438.576 234.756 437.135 233.315 437.135 231.155V27.3627C437.135 26.6426 437.855 25.2023 438.576 24.4822C439.296 23.7621 440.016 23.7621 441.456 23.7621H536.517C537.237 23.7621 538.677 23.7621 539.397 24.4822C540.118 25.2023 540.118 25.9224 540.118 27.3627V50.4063C538.677 51.1264 537.957 51.8466 537.237 52.5667ZM614.294 81.3712C615.014 80.6511 615.734 80.6511 617.174 80.6511H643.82C644.54 80.6511 645.981 80.6511 646.701 81.3712C647.421 82.0913 647.421 82.8114 647.421 84.2517V231.155C647.421 231.875 646.701 233.315 646.701 234.035C645.981 234.756 645.26 234.756 644.54 234.756H617.895C617.174 234.756 615.734 234.756 615.014 234.035C614.294 233.315 614.294 232.595 614.294 231.155V221.793C614.294 221.073 614.294 220.353 613.574 220.353C612.853 220.353 612.853 220.353 612.133 221.073C605.652 231.155 596.29 236.196 584.047 236.196C572.525 236.196 563.883 232.595 557.401 226.114C550.92 219.633 546.599 210.272 545.159 198.03C544.439 192.989 544.439 189.388 544.439 187.228V126.018C544.439 110.176 548.039 98.654 554.521 90.0126C561.002 81.3712 571.084 77.0505 584.047 77.0505C589.808 77.0505 594.85 78.4908 599.891 80.6511C604.932 82.8115 609.253 87.1321 612.133 92.1729C612.853 92.893 612.853 92.8931 613.574 92.8931C613.574 92.8931 614.294 92.1729 614.294 91.4528V82.0913C612.853 83.5316 613.574 82.0913 614.294 81.3712ZM608.532 200.91C611.413 197.31 613.574 191.549 613.574 185.068V128.899V125.298C612.853 120.257 610.693 115.937 607.812 112.336C604.932 109.456 600.611 107.295 596.29 107.295C590.529 107.295 586.208 109.456 583.327 113.056C579.726 116.657 578.286 122.418 578.286 128.899V188.668C579.006 194.429 581.167 198.75 584.047 201.63C586.928 204.511 591.249 206.671 595.57 206.671C600.611 207.391 604.932 205.231 608.532 200.91ZM685.589 226.834C676.947 220.353 671.186 210.992 669.746 200.19C669.746 197.31 669.026 195.869 669.026 194.429V192.269C669.026 191.549 669.746 190.108 669.746 189.388C670.466 188.668 671.186 188.668 671.906 188.668H698.552C699.272 188.668 700.713 188.668 701.433 189.388C702.153 190.108 702.153 190.829 702.153 192.269V193.709C702.153 198.75 703.593 202.35 707.914 205.951C711.515 208.831 715.836 210.992 720.877 210.992C726.638 210.992 730.239 209.552 733.84 205.951C736.72 202.35 738.161 198.03 737.441 192.989C736.72 188.668 734.56 185.068 730.959 182.187C727.358 179.307 723.037 177.146 718.716 175.706C714.395 174.266 711.515 172.826 710.075 172.106C699.992 167.785 691.351 163.464 684.869 156.983C677.668 151.222 674.067 142.581 672.626 131.779C670.466 115.937 674.067 102.975 682.709 93.6132C691.35 84.2517 704.313 79.931 720.157 79.931C733.84 79.931 745.362 83.5316 754.004 90.0126C762.646 97.2137 767.687 106.575 769.127 118.817V126.018C769.127 126.738 768.407 128.179 768.407 128.899C767.687 129.619 766.967 129.619 766.247 129.619H741.761C739.601 129.619 738.161 128.179 738.161 126.018V123.858C738.161 118.817 736.72 115.217 733.84 111.616C730.959 108.736 726.638 106.575 721.597 106.575C715.836 106.575 711.515 108.736 708.634 112.336C705.754 115.937 704.313 120.978 705.033 125.298C705.754 130.339 707.914 133.94 711.515 136.1C715.116 138.26 721.597 141.861 730.959 145.461C738.161 148.342 744.642 151.222 749.683 154.823C754.724 157.703 759.765 162.024 764.086 167.065C768.407 172.106 771.288 178.587 772.008 186.508C774.168 201.63 769.848 213.872 760.486 222.514C751.123 231.875 738.161 236.196 721.597 236.196C705.754 236.916 694.231 233.315 685.589 226.834ZM851.945 104.415C851.225 105.135 850.505 105.135 849.785 105.135H831.781C831.061 105.135 830.341 105.855 830.341 106.575V185.788C830.341 187.228 830.341 188.668 831.061 191.549C831.781 196.589 833.221 199.47 835.382 201.63C837.542 203.791 841.143 204.511 845.464 204.511H847.624C848.345 204.511 849.785 204.511 850.505 205.231C851.225 205.951 851.225 206.671 851.225 208.111V231.155C851.225 231.875 850.505 233.315 849.785 234.035C849.065 234.756 848.345 234.756 846.904 234.756H836.822C825.3 234.756 815.938 232.595 808.736 228.995C802.255 225.394 797.934 217.473 796.493 207.391C796.493 205.951 796.493 203.07 795.773 199.47V107.295C795.773 106.575 795.053 105.855 794.333 105.855H784.251C783.531 105.855 782.09 105.855 781.37 105.135C780.65 104.415 780.65 103.695 780.65 102.255V84.9718C780.65 84.2517 781.37 82.8115 781.37 82.0913C782.09 81.3712 782.81 81.3712 783.531 81.3712H793.613C795.053 81.3712 795.053 80.6511 795.053 79.931V46.8058C795.053 46.0856 795.773 44.6454 796.493 43.9253C797.214 43.2052 797.934 43.2052 799.374 43.2052H825.3C826.02 43.2052 827.46 43.2052 828.18 43.9253C828.9 44.6454 828.9 45.3655 828.9 46.8058V79.931C828.9 80.6511 828.9 81.3712 830.341 81.3712H848.345C849.065 81.3712 850.505 81.3712 851.225 82.0913C851.945 82.8115 851.945 83.5316 851.945 84.9718V102.255C853.386 102.975 852.666 103.695 851.945 104.415ZM971.491 23.7621H998.137C998.857 23.7621 1000.3 23.7621 1001.02 24.4822C1001.74 25.2023 1001.74 25.9224 1001.74 27.3627V231.155C1001.74 231.875 1001.74 233.315 1001.02 234.035C1000.3 234.756 999.578 234.756 998.137 234.756H972.212C971.491 234.756 970.051 234.756 969.331 234.035C968.611 233.315 968.611 232.595 968.611 231.155V88.5724C968.611 87.8523 968.611 87.1321 967.891 87.1321C967.17 87.1321 967.17 87.1321 966.45 87.8523L941.245 135.38C940.525 136.82 939.804 137.54 939.084 137.54C938.364 137.54 938.364 137.54 937.644 136.82C936.924 136.1 936.924 136.1 936.204 134.66L910.998 87.1321C910.998 86.412 910.278 86.412 910.278 86.412C909.558 86.412 909.558 87.1321 909.558 87.8523V230.435C909.558 231.155 908.838 232.595 908.838 233.315C908.118 234.035 907.397 234.035 906.677 234.035H878.591C877.871 234.035 876.431 234.035 875.711 233.315C874.99 232.595 874.99 231.875 874.99 230.435V26.6426C874.99 25.9224 874.99 24.4822 875.711 23.7621C876.431 23.042 877.151 23.042 878.591 23.042H905.237C907.397 23.042 908.838 23.7621 909.558 25.2023L938.364 77.0505C939.084 77.7707 939.084 77.7707 939.805 77.0505L967.891 25.2023C968.611 24.4822 970.051 23.7621 971.491 23.7621ZM1044.95 226.114C1035.59 218.913 1030.54 208.831 1029.1 195.869C1029.1 194.429 1029.1 191.549 1028.38 187.948V127.459C1028.38 112.336 1032.7 100.814 1042.07 91.4528C1051.43 82.8115 1064.39 77.7707 1080.23 77.7707C1094.64 77.7707 1106.88 81.3712 1116.24 89.2925C1125.6 96.4936 1130.65 107.295 1132.09 119.537V187.228C1132.09 202.35 1127.77 214.592 1118.4 223.234C1109.04 231.875 1096.08 236.196 1080.23 236.196C1065.83 236.916 1053.59 233.315 1044.95 226.114ZM1093.92 200.91C1097.52 197.31 1098.96 191.549 1098.96 185.068V126.018C1098.24 120.977 1096.08 116.657 1093.2 113.056C1089.6 109.456 1086 108.015 1080.96 108.015C1075.19 108.015 1070.87 110.176 1067.99 113.776C1064.39 117.377 1062.95 123.138 1062.95 129.619V188.668C1063.67 194.429 1065.83 198.75 1068.71 201.63C1072.31 204.511 1075.91 206.671 1080.96 206.671C1086 206.671 1090.32 204.511 1093.92 200.91ZM1168.09 226.834C1159.45 220.353 1153.69 210.992 1152.25 200.19C1152.25 197.31 1151.53 195.869 1151.53 194.429V192.269C1151.53 191.549 1152.25 190.108 1152.25 189.388C1152.97 188.668 1153.69 188.668 1154.41 188.668H1179.62C1180.34 188.668 1181.78 188.668 1182.5 189.388C1183.22 190.108 1183.22 190.829 1183.22 192.269V193.709C1183.22 198.75 1184.66 202.35 1188.98 205.951C1192.58 208.831 1196.9 210.992 1201.94 210.992C1207.7 210.992 1211.3 209.552 1214.9 205.951C1217.78 202.35 1219.23 198.03 1218.51 192.989C1217.78 188.668 1215.62 185.068 1212.02 182.187C1208.42 179.307 1204.1 177.146 1199.78 175.706C1195.46 173.546 1192.58 172.826 1191.14 172.106C1181.06 167.785 1172.42 163.464 1165.93 156.983C1158.73 151.222 1155.13 142.581 1153.69 131.779C1151.53 115.937 1155.13 102.975 1163.77 93.6132C1172.42 84.2517 1185.38 79.931 1201.22 79.931C1214.9 79.931 1226.43 83.5316 1235.07 90.0126C1243.71 97.2137 1248.75 106.575 1250.19 118.817V126.018C1250.19 126.738 1249.47 128.179 1249.47 128.899C1248.75 129.619 1248.03 129.619 1247.31 129.619H1222.83C1220.67 129.619 1219.23 128.179 1219.23 126.018V123.858C1219.23 118.817 1217.78 115.217 1214.9 111.616C1212.02 108.736 1207.7 106.575 1202.66 106.575C1196.9 106.575 1192.58 108.736 1189.7 112.336C1186.82 115.937 1185.38 120.978 1186.1 125.298C1186.82 130.339 1188.98 133.94 1192.58 136.1C1196.18 138.26 1202.66 141.861 1212.02 145.461C1219.23 148.342 1225.71 151.222 1230.75 154.823C1235.79 157.703 1240.83 162.024 1245.15 167.065C1249.47 172.106 1252.35 178.587 1253.07 186.508C1255.23 201.63 1250.91 213.872 1241.55 222.514C1232.19 231.875 1219.23 236.196 1202.66 236.196C1188.98 236.916 1177.46 233.315 1168.09 226.834ZM1280.44 226.834C1271.8 220.353 1266.04 210.992 1264.6 200.19C1264.6 197.31 1263.87 195.869 1263.87 194.429V192.269C1263.87 191.549 1264.6 190.108 1264.6 189.388C1265.32 188.668 1266.04 188.668 1266.76 188.668H1291.96C1292.68 188.668 1294.12 188.668 1294.84 189.388C1295.56 190.108 1295.56 190.829 1295.56 192.269V193.709C1295.56 198.75 1297 202.35 1301.32 205.951C1304.92 208.831 1309.24 210.992 1314.29 210.992C1320.05 210.992 1323.65 209.552 1327.25 205.951C1330.13 202.35 1331.57 198.03 1330.85 192.989C1330.13 188.668 1327.97 185.068 1324.37 182.187C1320.77 179.307 1316.45 177.146 1312.13 175.706C1307.8 173.546 1304.92 172.826 1303.48 172.106C1293.4 167.785 1284.76 163.464 1278.28 156.983C1271.08 151.222 1267.48 142.581 1266.04 131.779C1263.87 115.937 1267.48 102.975 1276.12 93.6132C1284.76 84.2517 1297.72 79.931 1313.57 79.931C1327.25 79.931 1338.77 83.5316 1347.41 90.0126C1356.05 97.2137 1361.1 106.575 1362.54 118.817V126.018C1362.54 126.738 1361.82 128.179 1361.82 128.899C1361.1 129.619 1360.38 129.619 1359.66 129.619H1335.17C1333.01 129.619 1331.57 128.179 1331.57 126.018V123.858C1331.57 118.817 1330.13 115.217 1327.25 111.616C1324.37 108.736 1320.05 106.575 1315.01 106.575C1309.24 106.575 1304.92 108.736 1302.04 112.336C1299.16 115.937 1297.72 120.978 1298.44 125.298C1299.16 130.339 1301.32 133.94 1304.92 136.1C1308.52 138.26 1315.01 141.861 1324.37 145.461C1331.57 148.342 1338.05 151.222 1343.09 154.823C1348.13 157.703 1353.17 162.024 1357.5 167.065C1361.82 172.106 1364.7 178.587 1365.42 186.508C1367.58 201.63 1363.26 213.872 1353.89 222.514C1344.53 231.875 1331.57 236.196 1315.01 236.196C1300.6 236.916 1289.08 233.315 1280.44 226.834Z" fill="#FE2062"></path><path d="M458.742 374.459V311.809H436.417V298.847H496.19V311.809H473.866V374.459H458.742ZM524.997 312.529V298.847H539.4V312.529H524.997ZM524.997 374.459V320.45H539.4V375.179H524.997V374.459ZM574.688 374.459V299.567H589.091V339.893L605.654 320.45H623.658L604.934 339.893L625.099 374.459H609.255L595.572 349.975L589.091 357.176V374.459H574.688ZM671.909 374.459V311.809H649.584V298.847H709.357V311.809H687.032V374.459H671.909ZM728.801 346.374C728.801 341.333 730.241 337.013 732.402 332.692C734.562 328.371 738.163 324.771 742.484 322.61C746.805 320.45 751.846 319.01 756.887 319.01C764.809 319.01 772.01 321.89 777.052 326.931C782.093 331.972 784.973 339.173 784.973 347.094C784.973 355.016 782.093 362.217 777.052 367.978C772.01 373.739 764.809 375.899 756.887 375.899C751.846 375.899 746.805 374.459 742.484 372.298C738.163 370.138 734.562 366.537 732.402 362.217C730.241 357.896 728.801 352.855 728.801 346.374ZM743.924 347.094C743.924 352.855 745.365 356.456 747.525 359.336C750.406 362.217 753.286 363.657 756.887 363.657C760.488 363.657 764.089 362.217 766.249 359.336C769.13 356.456 769.85 352.135 769.85 347.094C769.85 342.053 768.41 337.733 766.249 334.852C763.369 331.972 760.488 330.532 756.887 330.532C753.286 330.532 749.686 331.972 747.525 334.852C745.365 337.733 743.924 342.053 743.924 347.094ZM817.38 374.459V299.567H831.783V339.893L848.347 320.45H866.351L847.627 340.613L867.791 375.179H851.948L838.265 350.695L831.783 357.896V375.179H817.38V374.459ZM936.926 378.059C932.605 375.179 928.284 373.738 925.404 371.578C918.922 375.899 910.281 379.499 899.478 383.1L895.157 373.738C903.799 370.858 910.28 368.698 915.322 366.537C908.84 362.937 903.799 360.776 900.198 359.336C902.359 355.736 903.799 352.855 905.239 350.695H896.597V341.333H909.56C911.001 338.453 911.721 335.572 912.441 333.412L922.523 336.293C922.523 337.733 921.803 339.173 921.083 341.333H943.408V349.975C940.527 355.736 937.646 360.776 934.046 364.377L941.967 368.698L936.926 378.059ZM989.498 370.858L983.016 382.38C975.815 376.619 969.333 370.138 965.012 363.657C959.971 369.418 954.21 375.899 945.568 382.38L938.367 373.018C947.008 366.537 953.49 360.056 958.531 353.575C954.93 346.374 952.05 337.733 950.609 328.371L949.169 331.252L947.729 333.412L944.128 326.211L940.527 334.132C935.486 331.252 931.165 328.371 926.844 326.211V332.692H916.762V323.331C912.441 328.371 906.68 332.692 899.478 336.293L895.157 327.651C902.359 324.051 908.12 320.45 913.161 315.409H897.318V306.048H917.482V285.164H927.564V306.048H946.288V315.409H927.564V316.129C932.605 318.29 938.367 321.17 944.848 325.491L943.408 321.89C946.288 316.849 949.169 311.089 952.05 303.887C954.93 296.686 956.371 290.205 957.811 284.444L967.893 286.605C967.173 290.205 965.733 294.526 964.292 300.287H990.218V311.809H983.736C983.016 321.17 981.576 329.091 980.136 335.572C978.695 342.053 976.535 347.814 973.654 353.575C975.815 360.056 982.296 365.817 989.498 370.858ZM906.68 306.048L898.038 293.086L904.519 288.045C906.68 290.925 908.84 293.806 910.28 295.966L913.881 301.007L906.68 306.048ZM924.684 360.056C927.564 357.176 930.445 354.295 931.885 350.695H916.762L914.601 355.736C916.762 356.456 920.363 357.896 924.684 360.056ZM945.568 293.086C941.247 299.567 937.646 303.887 936.206 306.768L929.005 301.727C931.885 298.847 934.766 293.806 938.367 288.045L945.568 293.086ZM965.012 343.494C968.613 335.572 970.774 325.491 972.214 313.249H958.531L957.811 314.689C959.251 326.211 962.132 335.572 965.012 343.494ZM1115.53 337.013H1093.92V346.374H1110.48V382.38H1100.4V377.339H1077.36V382.38H1067.27V346.374H1083.84V337.013H1065.11C1064.39 346.374 1063.67 355.016 1061.51 361.497C1059.35 367.978 1056.47 374.459 1052.15 381.66L1042.07 375.899C1041.35 378.059 1039.91 379.499 1038.47 380.22C1036.31 380.94 1033.43 381.66 1029.83 381.66H1023.35L1021.9 370.858H1026.95C1029.11 370.858 1030.55 370.858 1031.27 370.138C1031.99 369.418 1031.99 367.978 1031.99 366.537V345.654L1023.35 349.975L1021.18 337.733L1031.99 332.692V315.409H1022.62V303.887H1032.71V286.605H1043.51V303.887H1051.43V315.409H1043.51V327.651C1045.67 326.931 1047.83 325.491 1050.71 324.051L1051.43 329.091L1052.15 335.572L1043.51 339.173V368.698C1043.51 371.578 1043.51 373.018 1042.79 374.459C1046.39 369.418 1048.55 363.657 1050.71 359.336C1052.15 354.295 1053.59 349.255 1054.31 343.494C1055.03 337.733 1055.03 329.812 1055.03 320.45V288.765H1113.36V316.85H1094.64V327.651H1116.25V337.013H1115.53ZM1101.84 308.928V299.567H1065.11V308.928H1101.84ZM1065.11 327.651H1083.12V318.29H1065.11V327.651ZM1077.36 367.978H1100.4V355.736H1077.36V367.978ZM1236.51 334.852C1232.91 331.972 1229.31 329.812 1225.71 326.931C1225.71 332.692 1224.99 339.893 1224.27 347.094C1223.55 355.016 1223.55 360.776 1222.83 364.377C1222.11 367.978 1221.39 370.858 1219.95 373.018C1218.51 375.179 1216.35 376.619 1214.19 377.339C1211.31 378.059 1208.43 378.779 1204.1 378.779H1189.7L1187.54 367.978H1201.22C1204.1 367.978 1206.26 367.978 1207.71 367.257C1209.15 366.537 1209.87 365.817 1210.59 365.097C1211.31 363.657 1211.31 362.217 1212.03 359.336L1214.19 335.572H1187.54V339.893C1187.54 346.374 1186.1 352.135 1184.66 356.456C1183.22 360.776 1179.62 365.817 1176.02 369.418C1171.7 373.738 1165.94 378.059 1158.73 382.38L1150.81 372.298C1157.29 369.418 1162.34 365.817 1165.94 362.937C1169.54 360.056 1171.7 356.456 1173.86 352.855C1175.3 349.255 1176.74 344.934 1177.46 339.173C1177.46 338.453 1177.46 337.013 1178.18 334.852H1165.22V326.931C1162.34 329.812 1158.73 331.972 1155.85 334.132L1150.09 323.331C1156.57 318.29 1163.06 313.249 1168.1 306.048C1173.86 299.567 1178.18 292.366 1181.06 284.444L1191.86 288.765C1188.98 295.966 1185.38 301.727 1181.78 307.488C1178.18 313.249 1173.14 318.29 1168.1 324.051H1226.43C1220.67 319.01 1216.35 313.969 1212.75 308.208C1209.15 302.447 1205.54 295.246 1202.66 287.325L1213.47 283.004C1217.07 292.366 1220.67 299.567 1225.71 306.048C1230.75 312.529 1237.23 317.57 1245.15 322.61L1236.51 334.852ZM1307.09 344.934C1303.49 341.333 1300.61 338.453 1298.44 337.013V381.66H1287.64V337.733C1284.76 344.934 1281.16 352.135 1276.84 358.616L1273.96 343.494C1279 336.293 1283.32 326.931 1286.92 315.409H1275.4V304.608H1287.64V286.605H1298.44V304.608H1309.97V315.409H1298.44V323.331C1304.93 329.091 1309.97 333.412 1313.57 336.293L1307.09 344.934ZM1368.3 321.89V332.692H1353.9V380.94H1342.37V332.692H1325.81C1325.81 341.333 1325.09 348.535 1324.37 353.575C1323.65 358.616 1322.21 363.657 1320.05 368.698C1317.89 373.018 1315.01 378.059 1311.41 383.1L1302.05 375.179C1305.65 370.858 1307.81 366.537 1309.97 362.937C1311.41 359.336 1312.85 355.016 1313.57 349.255C1314.29 344.214 1314.29 337.013 1314.29 327.651V294.526C1330.13 293.806 1345.25 290.925 1360.38 288.045L1363.26 299.567C1351.74 302.447 1338.77 303.887 1325.09 305.328V321.89H1368.3Z" fill="#FE2062"></path></svg>
